<svg width="133" height="72" viewBox="0 0 133 72" fill="none" xmlns="http://www.w3.org/2000/svg">
<path d="M0.9 71L32.6 0.999995H42.5L74.3 71H63.8L35.5 6.59999H39.5L11.2 71H0.9ZM14.4 53.5L17.1 45.5H56.5L59.4 53.5H14.4ZM105.142 71.8C99.8089 71.8 94.7089 71 89.8422 69.4C84.9755 67.7333 81.1422 65.6 78.3422 63L82.0422 55.2C84.7089 57.5333 88.1089 59.4667 92.2422 61C96.3755 62.5333 100.676 63.3 105.142 63.3C109.209 63.3 112.509 62.8333 115.042 61.9C117.576 60.9667 119.442 59.7 120.642 58.1C121.842 56.4333 122.442 54.5667 122.442 52.5C122.442 50.1 121.642 48.1667 120.042 46.7C118.509 45.2333 116.476 44.0667 113.942 43.2C111.476 42.2667 108.742 41.4667 105.742 40.8C102.742 40.1333 99.7089 39.3667 96.6422 38.5C93.6422 37.5667 90.8755 36.4 88.3422 35C85.8755 33.6 83.8755 31.7333 82.3422 29.4C80.8089 27 80.0422 23.9333 80.0422 20.2C80.0422 16.6 80.9755 13.3 82.8422 10.3C84.7755 7.23333 87.7089 4.8 91.6422 3C95.6422 1.13333 100.709 0.2 106.842 0.2C110.909 0.2 114.942 0.733332 118.942 1.8C122.942 2.86666 126.409 4.4 129.342 6.4L126.042 14.4C123.042 12.4 119.876 10.9667 116.542 10.1C113.209 9.16666 109.976 8.7 106.842 8.7C102.909 8.7 99.6755 9.2 97.1422 10.2C94.6089 11.2 92.7422 12.5333 91.5422 14.2C90.4089 15.8667 89.8422 17.7333 89.8422 19.8C89.8422 22.2667 90.6089 24.2333 92.1422 25.7C93.7422 27.1667 95.7755 28.3333 98.2422 29.2C100.776 30.0667 103.542 30.8667 106.542 31.6C109.542 32.2667 112.542 33.0333 115.542 33.9C118.609 34.7667 121.376 35.9 123.842 37.3C126.376 38.7 128.409 40.5667 129.942 42.9C131.476 45.2333 132.242 48.2333 132.242 51.9C132.242 55.4333 131.276 58.7333 129.342 61.8C127.409 64.8 124.409 67.2333 120.342 69.1C116.342 70.9 111.276 71.8 105.142 71.8Z" fill="url(#paint0_angular_1_2)"/>
<defs>
<radialGradient id="paint0_angular_1_2" cx="0" cy="0" r="1" gradientUnits="userSpaceOnUse" gradientTransform="translate(69 34.4959) scale(83.4545 89.0939)">
<stop offset="0.104167" stop-color="#1D9BC2"/>
<stop offset="0.28125" stop-color="#8B07B9"/>
<stop offset="0.557292" stop-color="#7875ED"/>
<stop offset="0.828125" stop-color="#075BB9"/>
</radialGradient>
</defs>
</svg>
