<svg width="28" height="28" viewBox="0 0 32 32" fill="none" xmlns="http://www.w3.org/2000/svg">
<path d="M1.95048 0L0 1.93524L12.7848 14.6895L13.501 15.6495H13.5467V24.5943C13.4857 25.0362 13.6381 25.5086 13.9886 25.859L17.0514 28.9219C17.6457 29.5162 18.6057 29.5162 19.2 28.9219C19.5505 28.6019 19.7029 28.1143 19.6419 27.6571V21.5771L30.0648 32L32 30.0648L19.6419 17.7067L12.6476 10.7124L4.63238 2.69714L1.95048 0ZM7.77143 1.93524L20.4648 14.6438L28.4648 4.40381C28.9829 3.74857 28.861 2.78857 28.2057 2.27048C27.9162 2.05714 27.5962 1.93524 27.261 1.93524H7.77143Z" fill="url(#paint0_linear_7_3)"/>
<defs>
<linearGradient id="paint0_linear_7_3" x1="16" y1="0" x2="16" y2="32" gradientUnits="userSpaceOnUse">
<stop stop-color="#12BCD9"/>
<stop offset="0.4375" stop-color="#C8EFF5"/>
<stop offset="1" stop-color="#12BCD9"/>
</linearGradient>
</defs>
</svg>
