<svg width="32" height="32" viewBox="0 0 200 200" fill="none" xmlns="http://www.w3.org/2000/svg">
<path d="M100 172C75 172 52.9 159.2 40 140C40.3 120 80 109 100 109C120 109 159.7 120 160 140C147.1 159.2 125 172 100 172ZM100 30C107.956 30 115.587 33.1607 121.213 38.7868C126.839 44.4129 130 52.0435 130 60C130 67.9565 126.839 75.5871 121.213 81.2132C115.587 86.8393 107.956 90 100 90C92.0435 90 84.4129 86.8393 78.7868 81.2132C73.1607 75.5871 70 67.9565 70 60C70 52.0435 73.1607 44.4129 78.7868 38.7868C84.4129 33.1607 92.0435 30 100 30ZM100 0C86.8678 0 73.8642 2.58658 61.7317 7.61205C49.5991 12.6375 38.5752 20.0035 29.2893 29.2893C10.5357 48.043 0 73.4784 0 100C0 126.522 10.5357 151.957 29.2893 170.711C38.5752 179.997 49.5991 187.362 61.7317 192.388C73.8642 197.413 86.8678 200 100 200C126.522 200 151.957 189.464 170.711 170.711C189.464 151.957 200 126.522 200 100C200 44.7 155 0 100 0Z" fill="#14B8A6"/>
</svg>
